<?xml version="1.0" standalone="no"?>
<!DOCTYPE svg PUBLIC "-//W3C//DTD SVG 20010904//EN"
 "http://www.w3.org/TR/2001/REC-SVG-20010904/DTD/svg10.dtd">
<svg version="1.0" xmlns="http://www.w3.org/2000/svg"
 width="1664.000000pt" height="1664.000000pt" viewBox="0 0 1664.000000 1664.000000"
 preserveAspectRatio="xMidYMid meet">
<metadata>
Created by potrace 1.14, written by Peter Selinger 2001-2017
</metadata>
<g transform="translate(0.000000,1664.000000) scale(0.100000,-0.100000)"
fill="#000000" stroke="none">
<path d="M1340 11079 c-19 -4 -49 -10 -67 -13 -29 -5 -96 -29 -165 -59 -16 -7
-28 -15 -28 -19 0 -5 -9 -8 -20 -8 -11 0 -20 -4 -20 -10 0 -5 -7 -10 -15 -10
-8 0 -15 -4 -15 -8 0 -4 -15 -16 -32 -27 -78 -46 -198 -186 -255 -298 -27 -54
-65 -157 -58 -157 3 0 1 -10 -4 -22 -18 -49 -24 -158 -27 -548 -2 -223 -4
-414 -4 -425 -3 -88 -81 -343 -130 -430 -13 -22 -28 -49 -34 -60 -15 -26 -49
-79 -56 -85 -3 -3 -22 -24 -42 -48 -21 -23 -38 -40 -38 -38 0 2 -16 -11 -36
-29 -67 -62 -194 -116 -271 -117 l-23 0 0 -329 0 -329 28 0 c57 0 182 -47 234
-87 29 -23 127 -120 153 -153 41 -51 135 -225 135 -251 0 -5 4 -17 9 -27 20
-35 43 -122 57 -212 3 -19 8 -42 11 -50 3 -8 7 -213 8 -455 2 -242 6 -465 9
-495 17 -135 69 -270 138 -361 16 -20 28 -40 28 -43 0 -3 29 -35 63 -71 65
-65 188 -155 213 -155 8 0 14 -4 14 -9 0 -5 8 -11 18 -14 9 -3 50 -17 91 -31
40 -14 90 -29 110 -33 20 -4 237 -8 484 -10 l447 -4 0 446 c0 245 -3 446 -7
446 -5 1 -96 2 -203 3 -218 2 -244 9 -301 73 -39 45 -84 144 -100 219 -6 32
-13 152 -14 266 -2 190 -11 369 -19 415 -2 10 -7 41 -10 68 -4 28 -9 57 -12
66 -2 10 -6 30 -8 46 -11 87 -75 271 -137 392 -58 113 -136 213 -211 270 -54
40 -151 85 -162 74 -3 -4 -6 -2 -6 3 0 6 20 15 45 22 100 27 246 160 301 275
10 20 21 37 26 37 4 0 8 5 8 10 0 6 12 34 26 63 42 86 102 282 120 392 2 17 7
41 11 55 3 14 7 39 8 55 1 17 5 71 9 120 4 50 9 178 11 285 4 202 7 238 30
305 37 108 95 184 164 212 24 10 84 17 181 20 80 2 168 5 195 7 l50 3 3 446 2
447 -437 -1 c-241 -1 -454 -5 -473 -10z"/>
<path d="M14399 11088 c-1 -2 -3 -202 -4 -445 -1 -304 2 -443 9 -446 10 -3 78
-6 286 -11 41 -1 95 -8 119 -15 77 -22 147 -113 185 -241 17 -54 20 -109 31
-450 3 -96 7 -186 9 -200 3 -14 7 -47 11 -75 38 -291 166 -587 316 -735 62
-61 162 -120 203 -120 14 0 26 -5 26 -12 0 -6 -3 -9 -6 -6 -8 9 -93 -21 -135
-48 -137 -86 -267 -285 -338 -518 -24 -76 -49 -182 -57 -236 -3 -19 -7 -46 -9
-60 -3 -14 -7 -41 -10 -61 -10 -60 -18 -362 -14 -489 2 -49 -14 -173 -27 -219
-35 -121 -101 -214 -173 -243 -15 -7 -108 -11 -226 -12 l-200 -1 0 -448 -1
-448 451 4 c247 2 464 7 480 11 184 45 308 111 433 230 91 86 190 255 218 371
4 17 8 35 10 40 14 57 17 141 19 535 2 250 6 466 10 480 3 14 8 41 11 60 7 50
32 148 50 195 9 22 15 41 14 43 -2 4 82 176 89 182 3 3 19 25 35 50 90 139
268 255 399 259 l27 1 0 325 c0 251 -3 327 -12 330 -7 3 -29 7 -48 9 -116 11
-266 116 -367 256 -52 71 -116 203 -148 305 -51 158 -57 235 -60 700 -2 254
-7 451 -13 481 -54 255 -226 476 -462 591 -50 25 -154 60 -203 70 -32 6 -926
17 -928 11z"/>
<path d="M6577 10843 c-2 -1 -39 -5 -83 -8 -87 -5 -129 -11 -219 -27 -72 -12
-90 -16 -90 -18 0 -1 -9 -3 -20 -5 -11 -2 -38 -9 -60 -15 -22 -6 -53 -13 -69
-16 -16 -3 -41 -11 -55 -16 -14 -6 -30 -12 -36 -14 -26 -7 -141 -50 -145 -54
-3 -3 -10 -6 -16 -7 -16 -3 -232 -110 -274 -135 -63 -39 -175 -112 -186 -123
-7 -5 -24 -19 -40 -30 -27 -20 -68 -53 -113 -90 -54 -45 -221 -214 -267 -270
-27 -33 -54 -66 -61 -73 -20 -21 -193 -282 -187 -282 3 0 -4 -13 -15 -29 -70
-98 -216 -469 -257 -652 -2 -10 -6 -29 -9 -41 -3 -13 -8 -36 -10 -53 -3 -16
-8 -37 -10 -45 -2 -8 -7 -33 -10 -55 -3 -23 -8 -52 -10 -65 -3 -14 -8 -54 -11
-90 -3 -36 -7 -83 -9 -105 -6 -57 -6 -317 -1 -400 7 -119 28 -282 46 -355 5
-19 11 -46 14 -60 8 -46 45 -185 61 -230 9 -25 18 -52 20 -61 11 -55 147 -347
200 -434 14 -22 34 -56 44 -76 11 -19 27 -41 35 -48 9 -8 16 -18 16 -23 0 -10
102 -146 160 -213 130 -151 369 -358 530 -461 139 -88 361 -193 525 -249 65
-22 269 -73 320 -80 205 -28 256 -32 425 -29 102 2 196 5 210 8 14 2 45 7 70
10 25 4 56 9 70 11 14 3 34 7 46 9 108 21 375 103 382 118 2 4 19 10 38 14 19
3 34 10 34 15 0 5 6 9 13 9 50 0 404 220 532 331 59 52 122 108 156 142 l39
38 -22 32 c-13 17 -27 39 -33 49 -13 21 -127 190 -137 203 -5 6 -77 111 -160
235 -83 124 -175 260 -204 303 -30 42 -54 82 -54 87 0 6 -4 10 -10 10 -5 0
-10 5 -10 11 0 6 -7 17 -15 25 -13 13 -19 11 -48 -18 -28 -28 -150 -132 -182
-156 -6 -4 -26 -18 -45 -32 -162 -118 -388 -215 -555 -236 -63 -8 -237 -12
-249 -6 -5 3 -25 6 -45 8 -69 5 -209 39 -225 55 -6 5 -16 9 -24 9 -16 0 -84
30 -92 41 -3 3 -16 10 -29 14 -88 27 -317 219 -406 340 -17 22 -32 42 -35 45
-20 19 -130 219 -130 236 0 8 -4 14 -10 14 -5 0 -10 11 -10 24 0 14 -4 28 -10
31 -5 3 -10 16 -10 29 0 12 -4 26 -9 32 -4 5 -14 32 -21 59 -17 72 -20 85 -26
135 -3 25 -9 63 -13 85 -13 77 -2 322 18 393 6 18 10 35 10 37 -1 16 15 78 34
135 12 36 20 68 19 73 -1 4 2 7 8 7 5 0 10 7 10 16 0 25 65 149 128 242 57 86
219 262 240 262 7 0 12 4 12 9 0 4 26 26 58 47 76 51 85 56 172 100 102 50
164 71 295 100 103 23 295 22 405 -1 14 -2 34 -7 45 -9 194 -40 520 -228 669
-385 23 -23 32 -28 43 -20 7 6 13 18 13 25 0 8 3 14 8 14 4 0 23 24 42 53 19
28 37 54 41 57 3 3 19 25 35 50 36 54 265 381 277 395 4 6 39 55 77 110 38 55
73 105 77 110 5 6 19 27 32 48 13 21 30 45 39 54 15 14 11 21 -49 77 -36 33
-90 81 -119 106 -29 25 -59 51 -66 58 -7 6 -16 12 -20 12 -4 0 -25 15 -48 33
-43 34 -170 117 -246 161 -248 141 -559 249 -810 282 -72 9 -89 12 -100 19 -5
3 -10 1 -10 -5 0 -6 -5 -8 -10 -5 -11 7 -227 14 -233 8z"/>
<path d="M10676 10843 c-1 -1 -33 -5 -71 -8 -116 -8 -245 -28 -339 -51 -33 -8
-68 -16 -76 -18 -48 -12 -204 -63 -247 -82 -17 -8 -34 -14 -38 -14 -24 0 -337
-165 -343 -182 -2 -4 -8 -8 -13 -8 -10 0 -157 -98 -174 -116 -5 -6 -35 -30
-65 -54 -87 -68 -289 -278 -358 -371 -35 -46 -70 -92 -78 -102 -8 -9 -14 -19
-14 -22 0 -3 -15 -27 -34 -54 -19 -27 -32 -52 -29 -55 4 -3 2 -6 -4 -6 -12 0
-91 -148 -156 -291 -33 -74 -120 -320 -132 -378 -3 -11 -7 -31 -10 -43 -3 -13
-8 -34 -10 -48 -3 -14 -12 -57 -20 -96 -8 -40 -17 -94 -21 -120 -3 -27 -8 -57
-10 -67 -21 -114 -21 -564 1 -677 3 -14 7 -43 10 -65 3 -22 7 -49 9 -60 2 -11
7 -40 11 -65 4 -25 15 -76 25 -115 10 -38 21 -81 23 -95 5 -26 52 -170 66
-205 5 -11 21 -51 36 -90 37 -92 136 -285 185 -360 22 -33 43 -67 46 -75 4 -8
10 -17 14 -20 3 -3 13 -17 23 -32 24 -38 144 -186 181 -224 17 -17 38 -40 47
-50 15 -18 166 -159 191 -179 7 -5 36 -29 64 -52 29 -24 56 -43 62 -43 6 0 12
-4 14 -8 4 -12 95 -72 107 -72 6 0 11 -4 11 -8 0 -5 24 -21 53 -37 28 -15 63
-36 77 -45 14 -10 30 -19 35 -21 6 -1 51 -21 100 -44 142 -66 355 -138 475
-161 14 -3 67 -13 100 -20 8 -2 35 -6 60 -9 25 -3 71 -9 102 -14 31 -4 139 -6
240 -5 181 3 226 6 303 19 22 3 54 8 70 11 17 3 37 7 45 9 8 2 26 6 40 9 138
28 350 104 495 178 130 67 292 166 365 225 108 86 190 156 241 207 l46 45 -21
33 c-11 18 -24 35 -28 36 -5 2 -8 8 -8 14 0 6 -13 27 -30 48 -16 21 -30 42
-30 46 0 5 -12 23 -26 39 -14 17 -33 44 -41 60 -9 17 -19 32 -22 35 -13 11
-111 159 -111 168 0 6 -4 12 -8 14 -5 2 -64 86 -132 188 -69 102 -128 187
-132 188 -4 2 -8 10 -8 18 0 8 -4 14 -10 14 -5 0 -10 5 -10 12 0 6 -10 22 -21
34 l-22 23 -51 -49 c-28 -26 -64 -59 -81 -71 -16 -13 -32 -26 -35 -30 -7 -9
-158 -119 -163 -119 -3 0 -34 -17 -68 -38 -54 -32 -180 -90 -214 -99 -5 -1
-35 -10 -65 -18 -131 -38 -347 -52 -440 -30 -14 4 -32 7 -40 7 -8 0 -30 4 -48
10 -18 5 -39 11 -45 12 -41 8 -126 39 -190 70 -254 123 -465 336 -591 600 -35
73 -76 178 -81 206 0 3 -6 28 -13 55 -29 121 -35 182 -35 320 0 153 7 218 34
330 5 22 11 47 13 56 11 45 46 134 88 229 22 48 95 167 115 188 7 7 13 18 13
23 0 15 212 222 260 254 25 17 47 32 50 35 6 6 41 26 85 49 16 9 33 20 36 24
3 5 8 8 10 6 2 -1 26 8 53 19 52 23 165 61 206 68 14 3 32 7 40 9 91 26 325
23 435 -6 22 -6 47 -12 55 -13 8 -2 23 -6 32 -10 9 -4 22 -9 30 -11 42 -10 75
-24 188 -82 128 -65 252 -151 350 -242 30 -28 60 -51 65 -51 6 0 21 17 35 38
14 20 28 42 33 47 4 6 34 48 67 95 33 47 65 93 72 103 7 10 31 44 53 76 115
169 320 456 327 459 4 2 8 8 8 13 0 5 16 31 35 57 l34 49 -77 70 c-42 39 -93
84 -112 99 -19 16 -37 31 -40 35 -11 13 -199 144 -248 173 -30 17 -68 39 -85
50 -128 76 -433 205 -522 221 -11 2 -54 13 -95 24 -41 10 -93 22 -115 26 -22
3 -51 7 -65 10 -89 14 -364 27 -374 18z"/>
</g>
</svg>
